# xmcd
#
# Track frame offsets:
#	150
#	18628
#	30741
#	47555
#	64133
#	79350
#	90517
#	102932
#	116516
#	135550
#	152419
#	164724
#	178710
#	190925
#	210026
#	225207
#	238998
#	254145
#
# Disc length: 3573 seconds
#
# Revision: 4
# Processed by: cddbd v1.5.2PL0 Copyright (c) Steve Scherf et al.
# Submitted via: EasyCDDAExtractor 2010.6.0.0
#
DISCID=ed0df312
DTITLE=Various Artist - Ons Beste Duette
DYEAR=1999
DGENRE=Afrikaans
TTITLE0=Phillip and Ella - Time To Say  Goodbye 
TTITLE1=Manuel and Janita - Sterrenag
TTITLE2=Jurie and Patricia - Wals Van Die Seer 
TTITLE3=Francois and Elizabeth - Wil Jy Dan Carina? 
TTITLE4=Ge' and Rina - Ek Mis Jou Elke Dag 'n Bietje Meer 
TTITLE5=Groep Twee - Daar's Niks Soos Ware Liefde
TTITLE6=Johan and Carika - Do You Speak English?
TTITLE7=Kupido and Cora-Marie - Voorspoedige Lewensjaar
TTITLE8=Manueal and Ronëll - Frieds For Live
TTITLE9=Clive and Vangie - Wedding Bells
TTITLE10=Deon and Janita - Draai Maar Ou Wereld 
TTITLE11=Don Kelly and Vangie Coker - Could I Have This Dance? 
TTITLE12=Coleske - Kom Terug
TTITLE13=Deon and Rina - Vriende Vir Altyd
TTITLE14=Fanie and Mynie - Volkome Myne 
TTITLE15=Ernst and Ronëll - Liefdesrose
TTITLE16=Chardonnay - Maybe I'm Crazy 
TTITLE17=Innes and Franna - Mense Soos Jy 
EXTD=YEAR: 1999
EXTT0=
EXTT1=
EXTT2=
EXTT3=
EXTT4=
EXTT5=
EXTT6=
EXTT7=
EXTT8=
EXTT9=
EXTT10=
EXTT11=
EXTT12=
EXTT13=
EXTT14=
EXTT15=
EXTT16=
EXTT17=
PLAYORDER=
